<?xml version="1.0" encoding="utf-8"?>
<!-- Generator: Adobe Illustrator 23.0.1, SVG Export Plug-In . SVG Version: 6.00 Build 0)  -->
<svg version="1.1" id="Шар_1" xmlns="http://www.w3.org/2000/svg" xmlns:xlink="http://www.w3.org/1999/xlink" x="0px" y="0px"
	 viewBox="0 0 599 126" style="enable-background:new 0 0 599 126;" xml:space="preserve">
<style type="text/css">
	.st0{fill:none;}
	.st1{fill:#1A1A1A;}
	.st2{fill:#8D37EF;}
	.st3{fill:#FFFFFF;}
</style>
<g>
	<path class="st0" d="M-1427.8,117.3c-0.7-0.4-1.5-0.6-2.3-0.6c-0.8,0-1.6,0.2-2.4,0.6c-0.7,0.4-1.3,1-1.7,1.7
		c-0.4,0.7-0.6,1.5-0.6,2.4c0,0.9,0.2,1.7,0.6,2.4c0.4,0.7,1,1.3,1.7,1.7c1.4,0.8,3.3,0.8,4.7,0c0.7-0.4,1.3-1,1.7-1.7
		c0.4-0.7,0.6-1.5,0.6-2.4c0-0.9-0.2-1.7-0.6-2.4C-1426.5,118.3-1427.1,117.7-1427.8,117.3z"/>
	<polygon class="st0" points="-1460.4,122.8 -1462.7,117.5 -1465,122.8 	"/>
	<path class="st0" d="M-1547.2,123.7c0.4-0.7,0.6-1.5,0.6-2.3c0-0.9-0.2-1.7-0.6-2.4c-0.4-0.7-1-1.2-1.7-1.6
		c-0.7-0.4-1.5-0.6-2.4-0.6h-3.2v9.2h3.3c0.8,0,1.6-0.2,2.3-0.6C-1548.1,125-1547.6,124.4-1547.2,123.7z"/>
	<polygon class="st0" points="-1579.7,122.8 -1582,117.5 -1584.4,122.8 	"/>
	<path class="st0" d="M-1667.7,123.7c0.4-0.7,0.6-1.5,0.6-2.3c0-0.9-0.2-1.7-0.6-2.4c-0.4-0.7-1-1.2-1.7-1.6
		c-0.7-0.4-1.5-0.6-2.4-0.6h-3.2v9.2h3.3c0.8,0,1.6-0.2,2.3-0.6C-1668.7,125-1668.1,124.4-1667.7,123.7z"/>
	<path class="st0" d="M-1732.7,121.3c0.5-0.4,0.8-1.1,0.8-2c0-0.8-0.3-1.5-0.8-1.9c-0.5-0.4-1.3-0.7-2.4-0.7h-3v5.2h3
		C-1734,122-1733.2,121.7-1732.7,121.3z"/>
	<path class="st0" d="M-1488.3,117.3c-0.7-0.4-1.5-0.6-2.3-0.6c-0.8,0-1.6,0.2-2.4,0.6c-0.7,0.4-1.3,1-1.7,1.7
		c-0.4,0.7-0.6,1.5-0.6,2.4c0,0.9,0.2,1.7,0.6,2.4c0.4,0.7,1,1.3,1.7,1.7c1.4,0.8,3.3,0.8,4.7,0c0.7-0.4,1.3-1,1.7-1.7
		c0.4-0.7,0.6-1.5,0.6-2.4c0-0.9-0.2-1.7-0.6-2.4C-1487.1,118.3-1487.6,117.7-1488.3,117.3z"/>
	<polygon class="st0" points="-1301.3,122.8 -1303.6,117.5 -1305.9,122.8 	"/>
	<polygon class="st1" points="-1831.3,122.4 -1824.8,122.4 -1824.8,120.3 -1831.3,120.3 -1831.3,116.8 -1824.1,116.8 -1824.1,114.7 
		-1833.5,114.7 -1833.5,128.1 -1823.9,128.1 -1823.9,126 -1831.3,126 	"/>
	<polygon class="st1" points="-1811.1,124.2 -1818.1,114.7 -1820.3,114.7 -1820.3,128.1 -1818,128.1 -1818,118.6 -1811,128.1 
		-1808.9,128.1 -1808.9,114.7 -1811.1,114.7 	"/>
	<path class="st1" d="M-1800.9,117.3c1.3-0.7,2.9-0.8,4.3-0.3c0.6,0.3,1.2,0.6,1.7,1.1l0.2,0.2l1.3-1.7l-0.2-0.2
		c-0.6-0.6-1.4-1-2.3-1.4c-0.9-0.3-1.8-0.5-2.7-0.5c-1.3,0-2.5,0.3-3.6,0.9c-1.1,0.6-1.9,1.4-2.6,2.5c-0.6,1-0.9,2.2-0.9,3.4
		s0.3,2.4,0.9,3.4c0.6,1,1.5,1.9,2.5,2.5c1.1,0.6,2.2,0.9,3.5,0.9c0.9,0,1.8-0.2,2.7-0.5c0.9-0.3,1.7-0.7,2.4-1.3l0.1-0.1v-5.8h-5.3
		v2.1h3.2v2.5c-0.4,0.3-0.9,0.5-1.4,0.6c-1.4,0.5-2.8,0.3-4-0.4c-0.7-0.4-1.3-1-1.8-1.7c-0.4-0.7-0.6-1.5-0.6-2.4
		c0-0.9,0.2-1.7,0.6-2.4C-1802.2,118.3-1801.6,117.7-1800.9,117.3z"/>
	<rect x="-1789.4" y="114.7" class="st1" width="2.3" height="13.4"/>
	<polygon class="st1" points="-1773.5,124.2 -1780.5,114.7 -1782.7,114.7 -1782.7,128.1 -1780.4,128.1 -1780.4,118.6 -1773.4,128.1 
		-1771.3,128.1 -1771.3,114.7 -1773.5,114.7 	"/>
	<polygon class="st1" points="-1764.6,122.4 -1758.2,122.4 -1758.2,120.3 -1764.6,120.3 -1764.6,116.8 -1757.4,116.8 -1757.4,114.7 
		-1766.8,114.7 -1766.8,128.1 -1757.2,128.1 -1757.2,126 -1764.6,126 	"/>
	<polygon class="st1" points="-1751.3,122.4 -1744.9,122.4 -1744.9,120.3 -1751.3,120.3 -1751.3,116.8 -1744.1,116.8 -1744.1,114.7 
		-1753.6,114.7 -1753.6,128.1 -1743.9,128.1 -1743.9,126 -1751.3,126 	"/>
	<path class="st1" d="M-1730.5,122.1c0.5-0.8,0.8-1.7,0.8-2.8c0-1.5-0.5-2.6-1.4-3.4c-0.9-0.8-2.3-1.2-3.9-1.2h-5.3v13.4h2.3v-4h3
		c0.2,0,0.4,0,0.6,0l2.6,4h2.6l-3.1-4.5C-1731.6,123.2-1730.9,122.7-1730.5,122.1z M-1738.1,116.8h3c1,0,1.8,0.2,2.4,0.7
		c0.5,0.4,0.8,1,0.8,1.9c0,0.9-0.3,1.5-0.8,2c-0.5,0.4-1.3,0.7-2.4,0.7h-3V116.8z"/>
	<rect x="-1725.8" y="114.7" class="st1" width="2.3" height="13.4"/>
	<polygon class="st1" points="-1710,124.2 -1717,114.7 -1719.1,114.7 -1719.1,128.1 -1716.9,128.1 -1716.9,118.6 -1709.9,128.1 
		-1707.7,128.1 -1707.7,114.7 -1710,114.7 	"/>
	<path class="st1" d="M-1699.8,117.3c1.3-0.7,2.9-0.8,4.3-0.3c0.6,0.3,1.2,0.6,1.7,1.1l0.2,0.2l1.3-1.7l-0.2-0.2
		c-0.6-0.6-1.4-1-2.3-1.4c-0.9-0.3-1.8-0.5-2.7-0.5c-1.3,0-2.5,0.3-3.6,0.9c-1.1,0.6-1.9,1.4-2.6,2.5c-0.6,1-0.9,2.2-0.9,3.4
		s0.3,2.4,0.9,3.4c0.6,1,1.5,1.9,2.5,2.5c1.1,0.6,2.2,0.9,3.5,0.9c0.9,0,1.8-0.2,2.7-0.5c0.9-0.3,1.7-0.7,2.4-1.3l0.1-0.1v-5.8h-5.3
		v2.1h3.2v2.5c-0.4,0.3-0.9,0.5-1.4,0.6c-1.4,0.5-2.8,0.3-4-0.4c-0.7-0.4-1.3-1-1.8-1.7c-0.4-0.7-0.6-1.5-0.6-2.4
		c0-0.9,0.2-1.7,0.6-2.4C-1701.1,118.3-1700.5,117.7-1699.8,117.3z"/>
	<path class="st1" d="M-1688.8,126c-0.2,0.2-0.4,0.5-0.4,0.9c0,0.2,0.1,0.4,0.2,0.6c0.1,0.1,0.2,0.2,0.3,0.3l-0.8,2.2h1.5l1.1-2.2
		c0.1-0.1,0.1-0.3,0.2-0.4c0.1-0.2,0.1-0.3,0.1-0.5c0-0.4-0.1-0.7-0.4-0.9C-1687.5,125.6-1688.3,125.6-1688.8,126z"/>
	<path class="st1" d="M-1668.2,115.6c-1-0.6-2.2-0.9-3.5-0.9h-5.5v13.4h5.4c1.3,0,2.5-0.3,3.5-0.9c1.1-0.6,1.9-1.4,2.5-2.4
		s0.9-2.2,0.9-3.4c0-1.3-0.3-2.4-0.9-3.4C-1666.3,116.9-1667.1,116.1-1668.2,115.6z M-1671.7,126h-3.3v-9.2h3.2
		c0.9,0,1.6,0.2,2.4,0.6c0.7,0.4,1.3,1,1.7,1.6c0.4,0.7,0.6,1.5,0.6,2.4c0,0.9-0.2,1.6-0.6,2.3c-0.4,0.7-0.9,1.2-1.6,1.6
		C-1670,125.8-1670.8,126-1671.7,126z"/>
	<polygon class="st1" points="-1659.3,122.4 -1652.9,122.4 -1652.9,120.3 -1659.3,120.3 -1659.3,116.8 -1652.1,116.8 -1652.1,114.7 
		-1661.5,114.7 -1661.5,128.1 -1651.9,128.1 -1651.9,126 -1659.3,126 	"/>
	<path class="st1" d="M-1641.4,121c-0.6-0.3-1.3-0.5-2.1-0.8c-0.7-0.2-1.2-0.4-1.6-0.6c-0.4-0.2-0.7-0.4-0.9-0.6
		c-0.2-0.2-0.3-0.6-0.3-0.9c0-0.4,0.2-0.7,0.6-1c0.7-0.5,1.9-0.5,3.4-0.1v0c0.6,0.2,1.2,0.5,1.8,0.8l0.2,0.2l0.9-2l-0.2-0.1
		c-0.6-0.4-1.3-0.7-2-0.9c-0.8-0.2-1.6-0.4-2.3-0.4c-0.9,0-1.8,0.1-2.5,0.4c-0.7,0.3-1.3,0.7-1.7,1.3c-0.4,0.6-0.6,1.2-0.6,2
		c0,0.8,0.2,1.5,0.6,2c0.4,0.5,0.9,0.9,1.5,1.2c0.5,0.2,1.3,0.5,2.1,0.8c0.7,0.2,1.2,0.4,1.6,0.6c0.4,0.2,0.7,0.4,0.9,0.6
		c0.2,0.2,0.3,0.6,0.3,1c0,0.5-0.2,0.9-0.6,1.2c-0.5,0.3-1.1,0.5-1.9,0.5c-0.7,0-1.4-0.2-2.1-0.5c-0.7-0.3-1.4-0.8-2-1.3l-0.2-0.2
		l-1,2l0.1,0.1c0.7,0.6,1.5,1.1,2.4,1.5c0.9,0.4,1.9,0.6,2.9,0.6c1,0,1.8-0.2,2.6-0.5c0.8-0.3,1.4-0.8,1.8-1.4
		c0.4-0.6,0.6-1.3,0.6-2.1c0-0.9-0.2-1.5-0.6-2.1C-1640.3,121.7-1640.8,121.3-1641.4,121z"/>
	<rect x="-1635.7" y="114.7" class="st1" width="2.3" height="13.4"/>
	<path class="st1" d="M-1625.5,117.3c1.3-0.7,2.9-0.8,4.3-0.3c0.6,0.3,1.2,0.6,1.7,1.1l0.2,0.2l1.3-1.7l-0.2-0.2
		c-0.6-0.6-1.4-1-2.3-1.4c-0.9-0.3-1.8-0.5-2.7-0.5c-1.3,0-2.5,0.3-3.6,0.9c-1.1,0.6-1.9,1.4-2.6,2.5c-0.6,1-0.9,2.2-0.9,3.4
		s0.3,2.4,0.9,3.4c0.6,1,1.5,1.9,2.5,2.5c1.1,0.6,2.2,0.9,3.5,0.9c0.9,0,1.8-0.2,2.7-0.5c0.9-0.3,1.7-0.7,2.4-1.3l0.1-0.1v-5.8h-5.3
		v2.1h3.2v2.5c-0.4,0.3-0.9,0.5-1.4,0.6c-1.4,0.5-2.8,0.3-4-0.4c-0.7-0.4-1.3-1-1.8-1.7c-0.4-0.7-0.6-1.5-0.6-2.4
		c0-0.9,0.2-1.7,0.6-2.4C-1626.8,118.3-1626.3,117.7-1625.5,117.3z"/>
	<polygon class="st1" points="-1604.8,124.2 -1611.8,114.7 -1614,114.7 -1614,128.1 -1611.7,128.1 -1611.7,118.6 -1604.7,128.1 
		-1602.6,128.1 -1602.6,114.7 -1604.8,114.7 	"/>
	<path class="st1" d="M-1598.7,126c-0.2,0.2-0.4,0.5-0.4,0.9c0,0.2,0.1,0.4,0.2,0.6c0.1,0.1,0.2,0.2,0.3,0.3l-0.8,2.2h1.5l1.1-2.2
		c0.1-0.1,0.1-0.3,0.2-0.4c0.1-0.2,0.1-0.3,0.1-0.5c0-0.4-0.1-0.7-0.4-0.9C-1597.4,125.6-1598.2,125.6-1598.7,126z"/>
	<path class="st1" d="M-1583.1,114.7l-5.9,13.4h2.4l1.3-3.1h6.5l1.4,3.1h2.5l-5.9-13.4H-1583.1z M-1579.7,122.8h-4.6l2.3-5.4
		L-1579.7,122.8z"/>
	<polygon class="st1" points="-1563.3,124.2 -1570.3,114.7 -1572.5,114.7 -1572.5,128.1 -1570.2,128.1 -1570.2,118.6 -1563.3,128.1 
		-1561.1,128.1 -1561.1,114.7 -1563.3,114.7 	"/>
	<path class="st1" d="M-1547.7,115.6c-1-0.6-2.2-0.9-3.5-0.9h-5.5v13.4h5.4c1.3,0,2.5-0.3,3.5-0.9c1.1-0.6,1.9-1.4,2.5-2.4
		s0.9-2.2,0.9-3.4c0-1.3-0.3-2.4-0.9-3.4C-1545.8,116.9-1546.6,116.1-1547.7,115.6z M-1551.1,126h-3.3v-9.2h3.2
		c0.9,0,1.6,0.2,2.4,0.6c0.7,0.4,1.3,1,1.7,1.6c0.4,0.7,0.6,1.5,0.6,2.4c0,0.9-0.2,1.6-0.6,2.3c-0.4,0.7-0.9,1.2-1.6,1.6
		C-1549.5,125.8-1550.3,126-1551.1,126z"/>
	<rect x="-1535" y="114.7" class="st1" width="2.3" height="13.4"/>
	<polygon class="st1" points="-1519.1,124.2 -1526.1,114.7 -1528.3,114.7 -1528.3,128.1 -1526,128.1 -1526,118.6 -1519,128.1 
		-1516.9,128.1 -1516.9,114.7 -1519.1,114.7 	"/>
	<polygon class="st1" points="-1503.3,124.2 -1510.3,114.7 -1512.4,114.7 -1512.4,128.1 -1510.2,128.1 -1510.2,118.6 -1503.2,128.1 
		-1501,128.1 -1501,114.7 -1503.3,114.7 	"/>
	<path class="st1" d="M-1487.2,115.5L-1487.2,115.5c-1.1-0.6-2.3-0.9-3.5-0.9c-1.3,0-2.5,0.3-3.5,0.9c-1.1,0.6-1.9,1.4-2.5,2.5
		c-0.6,1-0.9,2.2-0.9,3.4s0.3,2.4,0.9,3.5c0.6,1,1.5,1.9,2.5,2.5c1.1,0.6,2.3,0.9,3.5,0.9s2.5-0.3,3.5-0.9c1.1-0.6,1.9-1.4,2.5-2.5
		c0.6-1,0.9-2.2,0.9-3.5s-0.3-2.4-0.9-3.4C-1485.3,116.9-1486.1,116.1-1487.2,115.5z M-1486,121.4c0,0.9-0.2,1.7-0.6,2.4
		c-0.4,0.7-1,1.3-1.7,1.7c-1.4,0.8-3.3,0.8-4.7,0c-0.7-0.4-1.3-1-1.7-1.7c-0.4-0.7-0.6-1.5-0.6-2.4c0-0.9,0.2-1.7,0.6-2.4
		c0.4-0.7,1-1.3,1.7-1.7c0.7-0.4,1.5-0.6,2.4-0.6c0.8,0,1.6,0.2,2.3,0.6c0.7,0.4,1.3,1,1.7,1.7C-1486.2,119.7-1486,120.5-1486,121.4
		z"/>
	<polygon class="st1" points="-1471.9,114.7 -1475.9,125.2 -1480,114.7 -1482.5,114.7 -1477.1,127.9 -1477.1,128.1 -1474.9,128.1 
		-1469.5,114.7 	"/>
	<path class="st1" d="M-1463.8,114.7l-5.9,13.4h2.4l1.3-3.1h6.5l1.4,3.1h2.5l-5.9-13.4H-1463.8z M-1460.4,122.8h-4.6l2.3-5.4
		L-1460.4,122.8z"/>
	<polygon class="st1" points="-1456.1,116.8 -1451.9,116.8 -1451.9,128.1 -1449.7,128.1 -1449.7,116.8 -1445.5,116.8 -1445.5,114.7 
		-1456.1,114.7 	"/>
	<rect x="-1442.7" y="114.7" class="st1" width="2.3" height="13.4"/>
	<path class="st1" d="M-1426.7,115.5L-1426.7,115.5c-1.1-0.6-2.3-0.9-3.5-0.9c-1.3,0-2.5,0.3-3.5,0.9c-1.1,0.6-1.9,1.4-2.5,2.5
		c-0.6,1-0.9,2.2-0.9,3.4s0.3,2.4,0.9,3.5c0.6,1,1.5,1.9,2.5,2.5c1.1,0.6,2.3,0.9,3.5,0.9s2.5-0.3,3.5-0.9c1.1-0.6,1.9-1.4,2.5-2.5
		c0.6-1,0.9-2.2,0.9-3.5s-0.3-2.4-0.9-3.4C-1424.7,116.9-1425.6,116.1-1426.7,115.5z M-1425.5,121.4c0,0.9-0.2,1.7-0.6,2.4
		c-0.4,0.7-1,1.3-1.7,1.7c-1.4,0.8-3.3,0.8-4.7,0c-0.7-0.4-1.3-1-1.7-1.7c-0.4-0.7-0.6-1.5-0.6-2.4c0-0.9,0.2-1.7,0.6-2.4
		c0.4-0.7,1-1.3,1.7-1.7c0.7-0.4,1.5-0.6,2.4-0.6c0.8,0,1.6,0.2,2.3,0.6c0.7,0.4,1.3,1,1.7,1.7
		C-1425.7,119.7-1425.5,120.5-1425.5,121.4z"/>
	<polygon class="st1" points="-1410.7,124.2 -1417.7,114.7 -1419.9,114.7 -1419.9,128.1 -1417.6,128.1 -1417.6,118.6 -1410.6,128.1 
		-1408.5,128.1 -1408.5,114.7 -1410.7,114.7 	"/>
	<polygon class="st1" points="-1390.9,123.5 -1395.5,114.7 -1398,114.7 -1398,128.1 -1395.9,128.1 -1395.9,118.6 -1391.6,126.7 
		-1390.2,126.7 -1386.1,118.6 -1386,128.1 -1383.9,128.1 -1383.9,114.7 -1386.4,114.7 	"/>
	<polygon class="st1" points="-1377.2,122.4 -1370.8,122.4 -1370.8,120.3 -1377.2,120.3 -1377.2,116.8 -1370,116.8 -1370,114.7 
		-1379.5,114.7 -1379.5,128.1 -1369.8,128.1 -1369.8,126 -1377.2,126 	"/>
	<polygon class="st1" points="-1364,122.4 -1357.5,122.4 -1357.5,120.3 -1364,120.3 -1364,116.8 -1356.8,116.8 -1356.8,114.7 
		-1366.2,114.7 -1366.2,128.1 -1356.6,128.1 -1356.6,126 -1364,126 	"/>
	<polygon class="st1" points="-1354.6,116.8 -1350.5,116.8 -1350.5,128.1 -1348.2,128.1 -1348.2,116.8 -1344.1,116.8 -1344.1,114.7 
		-1354.6,114.7 	"/>
	<path class="st1" d="M-1328.3,121c-0.5-0.3-1.3-0.5-2.1-0.8c-0.7-0.2-1.2-0.4-1.6-0.6c-0.4-0.2-0.7-0.4-0.9-0.6
		c-0.2-0.2-0.3-0.6-0.3-0.9c0-0.4,0.2-0.7,0.6-1c0.7-0.5,1.9-0.5,3.4-0.1v0c0.6,0.2,1.2,0.5,1.8,0.8l0.2,0.2l0.9-2l-0.2-0.1
		c-0.6-0.4-1.3-0.7-2-0.9c-0.8-0.2-1.6-0.4-2.3-0.4c-0.9,0-1.8,0.1-2.5,0.4c-0.7,0.3-1.3,0.7-1.7,1.3c-0.4,0.6-0.6,1.2-0.6,2
		c0,0.8,0.2,1.5,0.6,2c0.4,0.5,0.9,0.9,1.5,1.2c0.5,0.2,1.3,0.5,2.1,0.8c0.7,0.2,1.2,0.4,1.6,0.6c0.4,0.2,0.7,0.4,0.9,0.6
		c0.2,0.2,0.3,0.6,0.3,1c0,0.5-0.2,0.9-0.6,1.2c-0.5,0.3-1.1,0.5-1.9,0.5c-0.7,0-1.4-0.2-2.1-0.5c-0.7-0.3-1.4-0.8-2-1.3l-0.2-0.2
		l-1,2l0.1,0.1c0.7,0.6,1.5,1.1,2.4,1.5c0.9,0.4,1.9,0.6,2.9,0.6c1,0,1.8-0.2,2.6-0.5c0.8-0.3,1.4-0.8,1.8-1.4
		c0.4-0.6,0.6-1.3,0.6-2.1c0-0.9-0.2-1.5-0.6-2.1C-1327.3,121.7-1327.8,121.3-1328.3,121z"/>
	<path class="st1" d="M-1313.3,124.6c-0.5,0.5-1,0.8-1.7,1.1c-1.4,0.6-3,0.5-4.3-0.2c-0.7-0.4-1.3-1-1.7-1.7
		c-0.4-0.7-0.6-1.5-0.6-2.4c0-0.9,0.2-1.7,0.6-2.4c0.4-0.7,1-1.3,1.7-1.7c1.3-0.7,2.9-0.9,4.3-0.2c0.6,0.3,1.2,0.7,1.6,1.2l0.2,0.2
		l1.4-1.7l-0.2-0.2c-0.6-0.6-1.4-1.1-2.3-1.5c-0.9-0.3-1.8-0.5-2.7-0.5c-1.3,0-2.5,0.3-3.5,0.9c-1.1,0.6-1.9,1.4-2.5,2.5
		c-0.6,1-0.9,2.2-0.9,3.4c0,1.3,0.3,2.4,0.9,3.5c0.6,1,1.5,1.9,2.5,2.5s2.2,0.9,3.5,0.9c0.9,0,1.8-0.2,2.7-0.6
		c0.9-0.4,1.7-0.9,2.3-1.6l0.2-0.2l-1.4-1.5L-1313.3,124.6z"/>
	<path class="st1" d="M-1304.6,114.7l-5.9,13.4h2.4l1.3-3.1h6.5l1.4,3.1h2.5l-5.9-13.4H-1304.6z M-1301.3,122.8h-4.6l2.3-5.4
		L-1301.3,122.8z"/>
	<polygon class="st1" points="-1291.8,114.7 -1294.1,114.7 -1294.1,128.1 -1286.2,128.1 -1286.2,126 -1291.8,126 	"/>
	<polygon class="st1" points="-1280.9,126 -1280.9,122.4 -1274.5,122.4 -1274.5,120.3 -1280.9,120.3 -1280.9,116.8 -1273.8,116.8 
		-1273.8,114.7 -1283.2,114.7 -1283.2,128.1 -1273.5,128.1 -1273.5,126 	"/>
	<path class="st1" d="M-1776.1,23.9c-6.7-3.6-15.1-5.4-25-5.4h-33.3v13.9h17.8v0h3.8c0-0.1,0.1-0.1,0.3,0h11.4
		c5.8,0,10.7,1.1,14.7,3.4c4,2.3,7.1,5.4,9.3,9.4c2.1,4,3.2,8.7,3.2,13.9c0,5.1-1.1,9.7-3.2,13.8c-2.1,4.1-5.2,7.3-9.2,9.6
		c-4,2.4-9,3.6-14.9,3.6h-15.5V45h-17.8v54.9h33.3c9.2,0,17.2-1.7,23.9-5c6.8-3.4,12-8.1,15.7-14.2c3.7-6.1,5.5-13.3,5.5-21.6
		c0-7.5-1.7-14.3-5-20.5C-1764.3,32.5-1769.4,27.6-1776.1,23.9z"/>
	<path class="st1" d="M-1711.4,35.2c0-0.1,0.1-0.2,0.1-0.3c0,0.2,0,0.4,0,0.6l12.4,33h-11.9c0.1,3.7,0.1,7.4,0.2,11.1h15.9l7.6,20.3
		h18.3l-33.7-81.4h-18.1l-33.8,81.4h18.3l0.1-0.2c-0.1,0-0.2,0-0.3,0c4.5-11.8,9.1-23.6,13.6-35.4l11.1-29.4L-1711.4,35.2z"/>
	<polygon class="st1" points="-1645.7,99.9 -1628,99.9 -1628,32.4 -1598.9,32.4 -1598.9,18.5 -1675.2,18.5 -1675.2,32.4 
		-1645.7,32.4 	"/>
	<path class="st1" d="M-1569.3,97.3c5.2,2.1,10.9,3.2,16.9,3.2c9.7,0,18.2-3.2,25.6-9.7v9.1h14.7V58h-33.2v11.6h18.5v5.6
		c-3.3,3.4-6.9,6.1-10.6,8c-4.2,2.1-8.7,3.2-13.4,3.2c-4,0-7.6-0.7-10.8-2.1c-3.3-1.4-6.1-3.3-8.6-5.8c-2.5-2.5-4.3-5.4-5.7-8.7
		c-1.3-3.3-2-6.9-2-10.8c0-3.7,0.6-7.1,1.8-10.4c1.2-3.3,3-6.2,5.3-8.7c2.3-2.5,5.1-4.5,8.3-6c3.2-1.4,6.8-2.2,10.6-2.2
		c4.9,0,9.5,1.1,13.7,3.2c4.2,2.1,7.4,5.2,9.7,9.3l13.3-8.7c-3.1-5.4-7.7-9.7-13.9-13c-6.2-3.2-13.6-4.8-22.3-4.8
		c-6.3,0-12.1,1.1-17.6,3.2c-5.4,2.1-10.1,5-14.1,8.8c-4,3.8-7.1,8.1-9.4,13.1c-2.3,4.9-3.4,10.2-3.4,15.8c0,6,1.1,11.4,3.4,16.5
		c2.2,5,5.4,9.4,9.4,13.2C-1579.2,92.3-1574.6,95.2-1569.3,97.3z"/>
	<path class="st1" d="M-1452.9,18.5h-18.1l-33.8,81.4h17.4c8.3-21.5,16.6-43,24.9-64.5c0,0.4,0,0.8,0,1.2l0.6-1.7l12.6,33.6h-12.8
		c0.1,3.7,0.1,7.4,0.2,11.1h16.8l7.6,20.3h18.3L-1452.9,18.5z"/>
	<polygon class="st1" points="-1397.1,99.9 -1379.5,99.9 -1379.5,32.4 -1350.3,32.4 -1350.3,18.5 -1426.6,18.5 -1426.6,32.4 
		-1397.1,32.4 	"/>
	<polygon class="st1" points="-1274.1,86 -1320,86 -1320,64.8 -1281.5,64.8 -1281.5,52 -1320,52 -1320,45 -1337.8,45 -1337.8,99.9 
		-1274.1,99.9 	"/>
	<path class="st2" d="M-1320,32.4h13.7c0-0.1,0.1-0.1,0.3,0h30.6V18.5h-62.5v13.9L-1320,32.4L-1320,32.4z"/>
</g>
<g>
	<path class="st0" d="M-1056,123.7c0.4-0.7,0.6-1.5,0.6-2.3c0-0.9-0.2-1.7-0.6-2.4c-0.4-0.7-1-1.2-1.7-1.6c-0.7-0.4-1.5-0.6-2.4-0.6
		h-3.2v9.2h3.3c0.8,0,1.6-0.2,2.3-0.6C-1057,125-1056.4,124.4-1056,123.7z"/>
	<path class="st0" d="M-816.1,117.3c-0.7-0.4-1.5-0.6-2.3-0.6c-0.8,0-1.6,0.2-2.4,0.6v0c-0.7,0.4-1.3,1-1.7,1.7
		c-0.4,0.7-0.6,1.5-0.6,2.4c0,0.9,0.2,1.7,0.6,2.4c0.4,0.7,1,1.3,1.7,1.7c1.4,0.8,3.3,0.8,4.7,0c0.7-0.4,1.3-1,1.7-1.7
		c0.4-0.7,0.6-1.5,0.6-2.4c0-0.9-0.2-1.7-0.6-2.4C-814.8,118.3-815.4,117.7-816.1,117.3z"/>
	<path class="st0" d="M-1121,121.3c0.5-0.4,0.8-1.1,0.8-2c0-0.8-0.3-1.5-0.8-1.9c-0.5-0.4-1.3-0.7-2.4-0.7h-3v5.2h3
		C-1122.3,121.9-1121.5,121.7-1121,121.3z"/>
	<polygon class="st0" points="-968,122.8 -970.4,117.4 -972.7,122.8 	"/>
	<path class="st0" d="M-876.7,117.3c-0.7-0.4-1.5-0.6-2.3-0.6c-0.8,0-1.6,0.2-2.4,0.6v0c-0.7,0.4-1.3,1-1.7,1.7
		c-0.4,0.7-0.6,1.5-0.6,2.4c0,0.9,0.2,1.7,0.6,2.4c0.4,0.7,1,1.3,1.7,1.7c1.4,0.8,3.3,0.8,4.7,0c0.7-0.4,1.3-1,1.7-1.7
		c0.4-0.7,0.6-1.5,0.6-2.4c0-0.9-0.2-1.7-0.6-2.4C-875.4,118.3-875.9,117.7-876.7,117.3z"/>
	<path class="st0" d="M-935.5,123.7c0.4-0.7,0.6-1.5,0.6-2.3c0-0.9-0.2-1.7-0.6-2.4c-0.4-0.7-1-1.2-1.7-1.6
		c-0.7-0.4-1.5-0.6-2.4-0.6h-3.2v9.2h3.3c0.8,0,1.6-0.2,2.3-0.6C-936.4,125-935.9,124.4-935.5,123.7z"/>
	<polygon class="st0" points="-848.7,122.8 -851,117.4 -853.3,122.8 	"/>
	<polygon class="st0" points="-689.6,122.8 -691.9,117.4 -694.2,122.8 	"/>
	<polygon class="st3" points="-1219.6,122.3 -1213.1,122.3 -1213.1,120.2 -1219.6,120.2 -1219.6,116.8 -1212.4,116.8 -1212.4,114.7 
		-1221.8,114.7 -1221.8,128 -1212.2,128 -1212.2,125.9 -1219.6,125.9 	"/>
	<polygon class="st3" points="-1199.4,124.2 -1206.4,114.7 -1208.6,114.7 -1208.6,128 -1206.3,128 -1206.3,118.6 -1199.3,128 
		-1197.2,128 -1197.2,114.7 -1199.4,114.7 	"/>
	<path class="st3" d="M-1189.2,117.3c1.3-0.7,2.9-0.8,4.3-0.3c0.6,0.3,1.2,0.6,1.7,1.1l0.2,0.2l1.3-1.7l-0.2-0.2
		c-0.6-0.6-1.4-1-2.3-1.4c-0.9-0.3-1.8-0.5-2.7-0.5c-1.3,0-2.5,0.3-3.6,0.9c-1.1,0.6-1.9,1.4-2.6,2.5c-0.6,1-0.9,2.2-0.9,3.4
		c0,1.2,0.3,2.4,0.9,3.4c0.6,1,1.5,1.9,2.5,2.5c1.1,0.6,2.3,0.9,3.5,0.9c0.9,0,1.8-0.2,2.7-0.5c0.9-0.3,1.7-0.7,2.4-1.3l0.1-0.1
		v-5.8h-5.3v2.1h3.2v2.5c-0.4,0.3-0.9,0.5-1.4,0.6c-1.4,0.5-2.8,0.3-4-0.4c-0.7-0.4-1.3-1-1.8-1.7c-0.4-0.7-0.6-1.5-0.6-2.4
		c0-0.9,0.2-1.7,0.6-2.4C-1190.5,118.2-1189.9,117.7-1189.2,117.3z"/>
	<rect x="-1177.7" y="114.7" class="st3" width="2.3" height="13.4"/>
	<polygon class="st3" points="-1161.8,124.2 -1168.8,114.7 -1171,114.7 -1171,128 -1168.7,128 -1168.7,118.6 -1161.7,128 
		-1159.6,128 -1159.6,114.7 -1161.8,114.7 	"/>
	<polygon class="st3" points="-1152.9,122.3 -1146.5,122.3 -1146.5,120.2 -1152.9,120.2 -1152.9,116.8 -1145.7,116.8 -1145.7,114.7 
		-1155.2,114.7 -1155.2,128 -1145.5,128 -1145.5,125.9 -1152.9,125.9 	"/>
	<polygon class="st3" points="-1139.6,122.3 -1133.2,122.3 -1133.2,120.2 -1139.6,120.2 -1139.6,116.8 -1132.5,116.8 -1132.5,114.7 
		-1141.9,114.7 -1141.9,128 -1132.2,128 -1132.2,125.9 -1139.6,125.9 	"/>
	<path class="st3" d="M-1118.8,122c0.5-0.8,0.8-1.7,0.8-2.8c0-1.5-0.5-2.6-1.4-3.4c-0.9-0.8-2.3-1.2-3.9-1.2h-5.3V128h2.3v-4h3
		c0.2,0,0.4,0,0.6,0l2.6,4h2.6l-3.1-4.5C-1119.9,123.2-1119.2,122.7-1118.8,122z M-1126.4,116.8h3c1,0,1.8,0.2,2.4,0.7
		c0.5,0.4,0.8,1,0.8,1.9c0,0.9-0.3,1.5-0.8,2c-0.5,0.4-1.3,0.7-2.4,0.7h-3V116.8z"/>
	<rect x="-1114.1" y="114.7" class="st3" width="2.3" height="13.4"/>
	<polygon class="st3" points="-1098.3,124.2 -1105.3,114.7 -1107.4,114.7 -1107.4,128 -1105.2,128 -1105.2,118.6 -1098.2,128 
		-1096,128 -1096,114.7 -1098.3,114.7 	"/>
	<path class="st3" d="M-1088.1,117.3c1.3-0.7,2.9-0.8,4.3-0.3c0.6,0.3,1.2,0.6,1.7,1.1l0.2,0.2l1.3-1.7l-0.2-0.2
		c-0.6-0.6-1.4-1-2.3-1.4c-0.9-0.3-1.8-0.5-2.7-0.5c-1.3,0-2.5,0.3-3.6,0.9c-1.1,0.6-1.9,1.4-2.6,2.5c-0.6,1-0.9,2.2-0.9,3.4
		c0,1.2,0.3,2.4,0.9,3.4c0.6,1,1.5,1.9,2.5,2.5c1.1,0.6,2.3,0.9,3.5,0.9c0.9,0,1.8-0.2,2.7-0.5c0.9-0.3,1.7-0.7,2.4-1.3l0.1-0.1
		v-5.8h-5.3v2.1h3.2v2.5c-0.4,0.3-0.9,0.5-1.4,0.6c-1.4,0.5-2.8,0.3-4-0.4c-0.7-0.4-1.3-1-1.8-1.7c-0.4-0.7-0.6-1.5-0.6-2.4
		c0-0.9,0.2-1.7,0.6-2.4C-1089.4,118.2-1088.8,117.7-1088.1,117.3z"/>
	<path class="st3" d="M-1077.1,126c-0.2,0.2-0.4,0.5-0.4,0.9c0,0.2,0.1,0.4,0.2,0.6c0.1,0.1,0.2,0.2,0.3,0.3l-0.8,2.2h1.5l1.1-2.2
		c0.1-0.1,0.1-0.3,0.2-0.4c0.1-0.2,0.1-0.3,0.1-0.5c0-0.4-0.1-0.7-0.4-0.9C-1075.8,125.5-1076.6,125.5-1077.1,126z"/>
	<path class="st3" d="M-1056.5,115.5c-1-0.6-2.2-0.9-3.5-0.9h-5.5V128h5.4c1.3,0,2.5-0.3,3.5-0.9c1.1-0.6,1.9-1.4,2.5-2.4
		c0.6-1,0.9-2.2,0.9-3.4c0-1.3-0.3-2.4-0.9-3.4C-1054.6,116.9-1055.4,116.1-1056.5,115.5z M-1060,125.9h-3.3v-9.2h3.2
		c0.9,0,1.6,0.2,2.4,0.6c0.7,0.4,1.3,1,1.7,1.6c0.4,0.7,0.6,1.5,0.6,2.4c0,0.9-0.2,1.6-0.6,2.3c-0.4,0.7-0.9,1.2-1.6,1.6
		C-1058.3,125.7-1059.1,125.9-1060,125.9z"/>
	<polygon class="st3" points="-1047.6,122.3 -1041.2,122.3 -1041.2,120.2 -1047.6,120.2 -1047.6,116.8 -1040.4,116.8 -1040.4,114.7 
		-1049.9,114.7 -1049.9,128 -1040.2,128 -1040.2,125.9 -1047.6,125.9 	"/>
	<path class="st3" d="M-1029.7,121c-0.5-0.2-1.3-0.5-2.1-0.8c-0.7-0.2-1.2-0.4-1.6-0.6c-0.4-0.2-0.7-0.4-0.9-0.6
		c-0.2-0.2-0.3-0.6-0.3-0.9c0-0.4,0.2-0.7,0.6-1c0.7-0.5,1.9-0.5,3.4-0.1c0.6,0.2,1.2,0.5,1.8,0.8l0.2,0.2l0.9-2l-0.2-0.1
		c-0.6-0.4-1.3-0.7-2-0.9c-0.8-0.2-1.6-0.4-2.3-0.4c-0.9,0-1.8,0.1-2.5,0.4c-0.7,0.3-1.3,0.7-1.7,1.3c-0.4,0.6-0.6,1.2-0.6,2
		c0,0.8,0.2,1.5,0.6,2c0.4,0.5,0.9,0.9,1.5,1.2c0.5,0.2,1.3,0.5,2.1,0.8c0.7,0.2,1.2,0.4,1.6,0.6c0.4,0.2,0.7,0.4,0.9,0.6
		c0.2,0.2,0.3,0.6,0.3,1c0,0.5-0.2,0.9-0.6,1.2c-0.5,0.3-1.1,0.5-1.9,0.5c-0.7,0-1.4-0.2-2.1-0.5c-0.7-0.3-1.4-0.8-2-1.3l-0.2-0.2
		l-1,2l0.1,0.1c0.7,0.6,1.5,1.1,2.4,1.5c0.9,0.4,1.9,0.6,2.9,0.6c1,0,1.8-0.2,2.6-0.5c0.8-0.3,1.4-0.8,1.8-1.4
		c0.4-0.6,0.6-1.3,0.6-2.1c0-0.9-0.2-1.6-0.6-2.1C-1028.6,121.7-1029.1,121.3-1029.7,121z"/>
	<rect x="-1024" y="114.7" class="st3" width="2.3" height="13.4"/>
	<path class="st3" d="M-1013.8,117.3c1.3-0.7,2.9-0.8,4.3-0.3c0.6,0.3,1.2,0.6,1.7,1.1l0.2,0.2l1.3-1.7l-0.2-0.2
		c-0.6-0.6-1.4-1-2.3-1.4c-0.9-0.3-1.8-0.5-2.7-0.5c-1.3,0-2.5,0.3-3.6,0.9c-1.1,0.6-1.9,1.4-2.6,2.5c-0.6,1-0.9,2.2-0.9,3.4
		c0,1.2,0.3,2.4,0.9,3.4c0.6,1,1.5,1.9,2.5,2.5c1.1,0.6,2.3,0.9,3.5,0.9c0.9,0,1.8-0.2,2.7-0.5c0.9-0.3,1.7-0.7,2.4-1.3l0.1-0.1
		v-5.8h-5.3v2.1h3.2v2.5c-0.4,0.3-0.9,0.5-1.4,0.6c-1.4,0.5-2.8,0.3-4-0.4c-0.7-0.4-1.3-1-1.8-1.7c-0.4-0.7-0.6-1.5-0.6-2.4
		c0-0.9,0.2-1.7,0.6-2.4C-1015.1,118.2-1014.6,117.7-1013.8,117.3z"/>
	<polygon class="st3" points="-993.1,124.2 -1000.1,114.7 -1002.3,114.7 -1002.3,128 -1000,128 -1000,118.6 -993,128 -990.9,128 
		-990.9,114.7 -993.1,114.7 	"/>
	<path class="st3" d="M-987,126c-0.2,0.2-0.4,0.5-0.4,0.9c0,0.2,0.1,0.4,0.2,0.6c0.1,0.1,0.2,0.2,0.3,0.3l-0.8,2.2h1.5l1.1-2.2
		c0.1-0.1,0.1-0.3,0.2-0.4c0.1-0.2,0.1-0.3,0.1-0.5c0-0.4-0.1-0.7-0.4-0.9C-985.8,125.5-986.6,125.5-987,126z"/>
	<path class="st3" d="M-969.2,114.7h-2.2l-5.9,13.4h2.4l1.3-3.1h6.5l1.4,3.1h2.5l-5.9-13.2L-969.2,114.7z M-968,122.8h-4.6l2.3-5.4
		L-968,122.8z"/>
	<polygon class="st3" points="-951.7,124.2 -958.7,114.7 -960.8,114.7 -960.8,128 -958.6,128 -958.6,118.6 -951.6,128 -949.4,128 
		-949.4,114.7 -951.7,114.7 	"/>
	<path class="st3" d="M-936,115.5c-1-0.6-2.2-0.9-3.5-0.9h-5.5V128h5.4c1.3,0,2.5-0.3,3.5-0.9c1.1-0.6,1.9-1.4,2.5-2.4
		c0.6-1,0.9-2.2,0.9-3.4c0-1.3-0.3-2.4-0.9-3.4C-934.1,116.9-934.9,116.1-936,115.5z M-939.4,125.9h-3.3v-9.2h3.2
		c0.9,0,1.6,0.2,2.4,0.6c0.7,0.4,1.3,1,1.7,1.6c0.4,0.7,0.6,1.5,0.6,2.4c0,0.9-0.2,1.6-0.6,2.3c-0.4,0.7-0.9,1.2-1.6,1.6
		C-937.8,125.7-938.6,125.9-939.4,125.9z"/>
	<rect x="-923.3" y="114.7" class="st3" width="2.3" height="13.4"/>
	<polygon class="st3" points="-907.4,124.2 -914.4,114.7 -916.6,114.7 -916.6,128 -914.3,128 -914.3,118.6 -907.3,128 -905.2,128 
		-905.2,114.7 -907.4,114.7 	"/>
	<polygon class="st3" points="-891.6,124.2 -898.6,114.7 -900.8,114.7 -900.8,128 -898.5,128 -898.5,118.6 -891.5,128 -889.3,128 
		-889.3,114.7 -891.6,114.7 	"/>
	<path class="st3" d="M-875.5,115.5L-875.5,115.5c-1.1-0.6-2.3-0.9-3.5-0.9c-1.3,0-2.5,0.3-3.5,0.9c-1.1,0.6-1.9,1.4-2.5,2.5
		c-0.6,1-0.9,2.2-0.9,3.4s0.3,2.4,0.9,3.5c0.6,1,1.5,1.9,2.5,2.5c1.1,0.6,2.3,0.9,3.5,0.9s2.5-0.3,3.5-0.9c1.1-0.6,1.9-1.4,2.5-2.5
		c0.6-1,0.9-2.2,0.9-3.4s-0.3-2.4-0.9-3.4C-873.6,116.9-874.4,116.1-875.5,115.5z M-874.3,121.3c0,0.9-0.2,1.7-0.6,2.4
		c-0.4,0.7-1,1.3-1.7,1.7c-1.4,0.8-3.3,0.8-4.7,0c-0.7-0.4-1.3-1-1.7-1.7c-0.4-0.7-0.6-1.5-0.6-2.4c0-0.9,0.2-1.7,0.6-2.4
		c0.4-0.7,1-1.3,1.7-1.7v0c0.7-0.4,1.5-0.6,2.4-0.6c0.8,0,1.6,0.2,2.3,0.6c0.7,0.4,1.3,1,1.7,1.7
		C-874.5,119.7-874.3,120.5-874.3,121.3z"/>
	<polygon class="st3" points="-860.2,114.7 -864.2,125.1 -868.3,114.7 -870.8,114.7 -865.4,127.9 -865.4,128 -863.2,128 
		-857.8,114.7 	"/>
	<path class="st3" d="M-849.9,114.7h-2.2L-858,128h2.4l1.3-3.1h6.5l1.4,3.1h2.5l-5.9-13.2L-849.9,114.7z M-848.7,122.8h-4.6l2.3-5.4
		L-848.7,122.8z"/>
	<polygon class="st3" points="-844.4,116.8 -840.2,116.8 -840.2,128 -838,128 -838,116.8 -833.8,116.8 -833.8,114.7 -844.4,114.7 	
		"/>
	<rect x="-831.1" y="114.7" class="st3" width="2.3" height="13.4"/>
	<path class="st3" d="M-815,115.5L-815,115.5c-1.1-0.6-2.3-0.9-3.5-0.9c-1.3,0-2.5,0.3-3.5,0.9c-1.1,0.6-1.9,1.4-2.5,2.5
		c-0.6,1-0.9,2.2-0.9,3.4s0.3,2.4,0.9,3.5c0.6,1,1.5,1.9,2.5,2.5c1.1,0.6,2.3,0.9,3.5,0.9s2.5-0.3,3.5-0.9c1.1-0.6,1.9-1.4,2.5-2.5
		c0.6-1,0.9-2.2,0.9-3.4s-0.3-2.4-0.9-3.4C-813,116.9-813.9,116.1-815,115.5z M-813.8,121.3c0,0.9-0.2,1.7-0.6,2.4
		c-0.4,0.7-1,1.3-1.7,1.7c-1.4,0.8-3.3,0.8-4.7,0c-0.7-0.4-1.3-1-1.7-1.7c-0.4-0.7-0.6-1.5-0.6-2.4c0-0.9,0.2-1.7,0.6-2.4
		c0.4-0.7,1-1.3,1.7-1.7v0c0.7-0.4,1.5-0.6,2.4-0.6c0.8,0,1.6,0.2,2.3,0.6c0.7,0.4,1.3,1,1.7,1.7
		C-814,119.7-813.8,120.5-813.8,121.3z"/>
	<polygon class="st3" points="-799,124.2 -806,114.7 -808.2,114.7 -808.2,128 -805.9,128 -805.9,118.6 -799,128 -796.8,128 
		-796.8,114.7 -799,114.7 	"/>
	<polygon class="st3" points="-779.2,123.4 -783.8,114.7 -786.3,114.7 -786.3,128 -784.2,128 -784.2,118.5 -780,126.6 -779.9,126.7 
		-778.6,126.7 -774.4,118.5 -774.4,128 -772.2,128 -772.2,114.7 -774.7,114.7 	"/>
	<polygon class="st3" points="-765.5,122.3 -759.1,122.3 -759.1,120.2 -765.5,120.2 -765.5,116.8 -758.3,116.8 -758.3,114.7 
		-767.8,114.7 -767.8,128 -758.1,128 -758.1,125.9 -765.5,125.9 	"/>
	<polygon class="st3" points="-752.3,122.3 -745.9,122.3 -745.9,120.2 -752.3,120.2 -752.3,116.8 -745.1,116.8 -745.1,114.7 
		-754.5,114.7 -754.5,128 -744.9,128 -744.9,125.9 -752.3,125.9 	"/>
	<polygon class="st3" points="-742.9,116.8 -738.8,116.8 -738.8,128 -736.5,128 -736.5,116.8 -732.4,116.8 -732.4,114.7 
		-742.9,114.7 	"/>
	<path class="st3" d="M-716.6,121c-0.5-0.2-1.3-0.5-2.1-0.8c-0.7-0.2-1.2-0.4-1.6-0.6c-0.4-0.2-0.7-0.4-0.9-0.6
		c-0.2-0.2-0.3-0.6-0.3-0.9c0-0.4,0.2-0.7,0.6-1c0.7-0.5,1.9-0.5,3.4-0.1c0.6,0.2,1.2,0.5,1.8,0.8l0.2,0.2l0.9-2l-0.2-0.1
		c-0.6-0.4-1.3-0.7-2-0.9c-0.8-0.2-1.6-0.4-2.3-0.4c-0.9,0-1.8,0.1-2.5,0.4c-0.7,0.3-1.3,0.7-1.7,1.3c-0.4,0.6-0.6,1.2-0.6,2
		c0,0.8,0.2,1.5,0.6,2c0.4,0.5,0.9,0.9,1.5,1.2c0.5,0.2,1.3,0.5,2.1,0.8c0.7,0.2,1.2,0.4,1.6,0.6c0.4,0.2,0.7,0.4,0.9,0.6
		c0.2,0.2,0.3,0.6,0.3,1c0,0.5-0.2,0.9-0.6,1.2c-0.5,0.3-1.1,0.5-1.9,0.5c-0.7,0-1.4-0.2-2.1-0.5c-0.7-0.3-1.4-0.8-2-1.3l-0.2-0.2
		l-1,2l0.1,0.1c0.7,0.6,1.5,1.1,2.4,1.5c0.9,0.4,1.9,0.6,2.9,0.6c1,0,1.8-0.2,2.6-0.5c0.8-0.3,1.4-0.8,1.8-1.4
		c0.4-0.6,0.6-1.3,0.6-2.1c0-0.9-0.2-1.6-0.6-2.1C-715.6,121.7-716.1,121.3-716.6,121z"/>
	<path class="st3" d="M-701.6,124.5c-0.5,0.5-1,0.8-1.7,1.1c-1.4,0.6-3,0.5-4.3-0.2c-0.7-0.4-1.3-1-1.7-1.7
		c-0.4-0.7-0.6-1.5-0.6-2.4c0-0.9,0.2-1.7,0.6-2.4c0.4-0.7,1-1.3,1.7-1.7c1.3-0.7,2.9-0.9,4.3-0.2c0.6,0.3,1.2,0.7,1.6,1.1l0.2,0.2
		l1.4-1.7l-0.2-0.2c-0.6-0.6-1.4-1.1-2.3-1.5c-0.9-0.3-1.8-0.5-2.7-0.5c-1.3,0-2.5,0.3-3.5,0.9c-1.1,0.6-1.9,1.4-2.5,2.5
		c-0.6,1-0.9,2.2-0.9,3.4c0,1.3,0.3,2.4,0.9,3.5c0.6,1,1.5,1.9,2.5,2.5s2.2,0.9,3.5,0.9c0.9,0,1.8-0.2,2.7-0.6
		c0.9-0.4,1.7-0.9,2.3-1.6l0.2-0.2l-1.4-1.5L-701.6,124.5z"/>
	<path class="st3" d="M-690.8,114.7h-2.2l-5.9,13.4h2.4l1.3-3.1h6.5l1.4,3.1h2.5l-5.9-13.2L-690.8,114.7z M-689.6,122.8h-4.6
		l2.3-5.4L-689.6,122.8z"/>
	<polygon class="st3" points="-680.1,114.7 -682.4,114.7 -682.4,128 -674.5,128 -674.5,125.9 -680.1,125.9 	"/>
	<polygon class="st3" points="-669.2,125.9 -669.2,122.3 -662.8,122.3 -662.8,120.2 -669.2,120.2 -669.2,116.8 -662.1,116.8 
		-662.1,114.7 -671.5,114.7 -671.5,128 -661.8,128 -661.8,125.9 	"/>
	<path class="st3" d="M-1164.4,23.9c-6.7-3.6-15.1-5.4-25-5.4h-33.3v13.9h17.8v0h3.8c0-0.1,0.1-0.1,0.3,0h11.4
		c5.8,0,10.7,1.1,14.7,3.4c4,2.3,7.1,5.4,9.3,9.4c2.1,4,3.2,8.7,3.2,13.9c0,5.1-1.1,9.7-3.2,13.8c-2.1,4.1-5.2,7.3-9.2,9.6
		c-4,2.4-9,3.6-14.9,3.6h-15.5V45h-17.8v54.9h33.3c9.2,0,17.2-1.7,23.9-5c6.8-3.4,12-8.1,15.7-14.2c3.7-6.1,5.5-13.3,5.5-21.6
		c0-7.5-1.7-14.3-5-20.5C-1152.7,32.4-1157.7,27.5-1164.4,23.9z"/>
	<path class="st3" d="M-1099.7,35.2c0-0.1,0.1-0.2,0.1-0.3c0,0.2,0,0.4,0,0.6l12.4,33h-11.9c0.1,3.7,0.1,7.4,0.2,11.1h15.9l7.6,20.3
		h18.3l-33.7-81.4h-18.1l-33.8,81.4h18.3l0.1-0.2c-0.1,0-0.2,0-0.3,0c4.5-11.8,9.1-23.6,13.6-35.4l11.1-29.4L-1099.7,35.2z"/>
	<polygon class="st3" points="-1034,99.9 -1016.4,99.9 -1016.4,32.3 -987.2,32.3 -987.2,18.5 -1063.5,18.5 -1063.5,32.3 -1034,32.3 
			"/>
	<path class="st3" d="M-957.6,97.3c5.2,2.1,10.9,3.2,16.9,3.2c9.7,0,18.2-3.2,25.6-9.7v9.1h14.7V58h-33.2v11.6h18.5v5.6
		c-3.3,3.4-6.9,6.1-10.6,8c-4.2,2.1-8.7,3.2-13.4,3.2c-4,0-7.6-0.7-10.8-2.1c-3.3-1.4-6.1-3.3-8.6-5.8c-2.5-2.5-4.3-5.4-5.7-8.7
		c-1.3-3.3-2-6.9-2-10.8c0-3.7,0.6-7.1,1.8-10.4c1.2-3.3,3-6.2,5.3-8.7c2.3-2.5,5.1-4.5,8.3-6c3.2-1.4,6.8-2.2,10.6-2.2
		c4.9,0,9.5,1.1,13.7,3.2c4.2,2.1,7.4,5.2,9.7,9.3l13.3-8.7c-3.1-5.4-7.7-9.7-13.9-13c-6.2-3.2-13.6-4.8-22.3-4.8
		c-6.3,0-12.1,1.1-17.6,3.2c-5.4,2.1-10.1,5-14.1,8.8c-4,3.8-7.1,8.1-9.4,13.1c-2.3,4.9-3.4,10.2-3.4,15.8c0,6,1.1,11.4,3.4,16.5
		c2.2,5,5.4,9.4,9.4,13.2C-967.5,92.2-962.9,95.2-957.6,97.3z"/>
	<path class="st3" d="M-841.2,18.5h-18.1l-33.8,81.4h17.4c8.3-21.5,16.6-43,24.9-64.5c0,0.4,0,0.8,0,1.2l0.6-1.7l12.6,33.6h-12.8
		c0.1,3.7,0.1,7.4,0.2,11.1h16.8l7.6,20.3h18.3L-841.2,18.5z"/>
	<polygon class="st3" points="-785.5,99.9 -767.8,99.9 -767.8,32.3 -738.6,32.3 -738.6,18.5 -814.9,18.5 -814.9,32.3 -785.5,32.3 	
		"/>
	<polygon class="st3" points="-662.5,86 -708.3,86 -708.3,64.8 -669.8,64.8 -669.8,51.9 -708.3,51.9 -708.3,45 -726.1,45 
		-726.1,99.9 -662.5,99.9 	"/>
	<path class="st2" d="M-708.3,32.3h13.7c0-0.1,0.1-0.1,0.3,0h30.6V18.5h-62.5v13.9L-708.3,32.3L-708.3,32.3z"/>
</g>
<g>
	<path class="st1" d="M-543.1,28.9c-6.7-3.6-15.1-5.4-25-5.4h-33.3v13.9h17.8v0h3.8c0-0.1,0.1-0.1,0.3,0h11.4
		c5.8,0,10.7,1.1,14.7,3.4c4,2.3,7.1,5.4,9.3,9.4c2.1,4,3.2,8.7,3.2,13.9c0,5.1-1.1,9.7-3.2,13.8c-2.1,4.1-5.2,7.3-9.2,9.6
		c-4,2.4-9,3.6-14.9,3.6h-15.5V50h-17.8v54.9h33.3c9.2,0,17.2-1.7,23.9-5c6.8-3.4,12-8.1,15.7-14.2c3.7-6.1,5.5-13.3,5.5-21.6
		c0-7.5-1.7-14.3-5-20.5C-531.3,37.5-536.4,32.6-543.1,28.9z"/>
	<path class="st1" d="M-478.4,40.2c0-0.1,0.1-0.2,0.1-0.3c0,0.2,0,0.4,0,0.6l12.4,33h-11.9c0.1,3.7,0.1,7.4,0.2,11.1h15.9l7.6,20.3
		h18.3l-33.7-81.4h-18.1l-33.8,81.4h18.3l0.1-0.2c-0.1,0-0.2,0-0.3,0c4.5-11.8,9.1-23.6,13.6-35.4l11.1-29.4L-478.4,40.2z"/>
	<polygon class="st1" points="-412.7,104.9 -395,104.9 -395,37.4 -365.9,37.4 -365.9,23.5 -442.2,23.5 -442.2,37.4 -412.7,37.4 	"/>
	<path class="st1" d="M-336.3,102.3c5.2,2.1,10.9,3.2,16.9,3.2c9.7,0,18.2-3.2,25.6-9.7v9.1h14.7V63h-33.2v11.6h18.5v5.6
		c-3.3,3.4-6.9,6.1-10.6,8c-4.2,2.1-8.7,3.2-13.4,3.2c-4,0-7.6-0.7-10.8-2.1c-3.3-1.4-6.1-3.3-8.6-5.8c-2.5-2.5-4.3-5.4-5.7-8.7
		c-1.3-3.3-2-6.9-2-10.8c0-3.7,0.6-7.1,1.8-10.4c1.2-3.3,3-6.2,5.3-8.7c2.3-2.5,5.1-4.5,8.3-6c3.2-1.4,6.8-2.2,10.6-2.2
		c4.9,0,9.5,1.1,13.7,3.2c4.2,2.1,7.4,5.2,9.7,9.3l13.3-8.7c-3.1-5.4-7.7-9.7-13.9-13c-6.2-3.2-13.6-4.8-22.3-4.8
		c-6.3,0-12.1,1.1-17.6,3.2c-5.4,2.1-10.1,5-14.1,8.8c-4,3.8-7.1,8.1-9.4,13.1c-2.3,4.9-3.4,10.2-3.4,15.8c0,6,1.1,11.4,3.4,16.5
		c2.2,5,5.4,9.4,9.4,13.2C-346.2,97.3-341.6,100.2-336.3,102.3z"/>
	<path class="st1" d="M-219.9,23.5H-238l-33.8,81.4h17.4c8.3-21.5,16.6-43,24.9-64.5c0,0.4,0,0.8,0,1.2l0.6-1.7l12.6,33.6h-12.8
		c0.1,3.7,0.1,7.4,0.2,11.1h16.8l7.6,20.3h18.3L-219.9,23.5z"/>
	<polygon class="st1" points="-164.1,104.9 -146.5,104.9 -146.5,37.4 -117.3,37.4 -117.3,23.5 -193.6,23.5 -193.6,37.4 -164.1,37.4 
			"/>
	<polygon class="st1" points="-41.1,91 -87,91 -87,69.8 -48.5,69.8 -48.5,57 -87,57 -87,50 -104.8,50 -104.8,104.9 -41.1,104.9 	"/>
	<path class="st2" d="M-87,37.4h13.7c0-0.1,0.1-0.1,0.3,0h30.6V23.5h-62.5v13.9L-87,37.4L-87,37.4z"/>
</g>
<g>
	<path class="st3" d="M76.6,26.9c-6.7-3.6-15.1-5.4-25-5.4H18.3v13.9h17.8v0h3.8c0-0.1,0.1-0.1,0.3,0h11.4c5.8,0,10.7,1.1,14.7,3.4
		c4,2.3,7.1,5.4,9.3,9.4c2.1,4,3.2,8.7,3.2,13.9c0,5.1-1.1,9.7-3.2,13.8c-2.1,4.1-5.2,7.3-9.2,9.6c-4,2.4-9,3.6-14.9,3.6H36.1V48
		H18.3v54.9h33.3c9.2,0,17.2-1.7,23.9-5c6.8-3.4,12-8.1,15.7-14.2c3.7-6.1,5.5-13.3,5.5-21.6c0-7.5-1.7-14.3-5-20.5
		C88.3,35.4,83.3,30.5,76.6,26.9z"/>
	<path class="st3" d="M141.3,38.2c0-0.1,0.1-0.2,0.1-0.3c0,0.2,0,0.4,0,0.6l12.4,33h-11.9c0.1,3.7,0.1,7.4,0.2,11.1h15.9l7.6,20.3
		h18.3l-33.7-81.4h-18.1l-33.8,81.4h18.3l0.1-0.2c-0.1,0-0.2,0-0.3,0c4.5-11.8,9.1-23.6,13.6-35.4l11.1-29.4L141.3,38.2z"/>
	<polygon class="st3" points="207,102.9 224.6,102.9 224.6,35.3 253.8,35.3 253.8,21.5 177.5,21.5 177.5,35.3 207,35.3 	"/>
	<path class="st3" d="M283.4,100.3c5.2,2.1,10.9,3.2,16.9,3.2c9.7,0,18.2-3.2,25.6-9.7v9.1h14.7V61h-33.2v11.6h18.5v5.6
		c-3.3,3.4-6.9,6.1-10.6,8c-4.2,2.1-8.7,3.2-13.4,3.2c-4,0-7.6-0.7-10.8-2.1c-3.3-1.4-6.1-3.3-8.6-5.8c-2.5-2.5-4.3-5.4-5.7-8.7
		c-1.3-3.3-2-6.9-2-10.8c0-3.7,0.6-7.1,1.8-10.4c1.2-3.3,3-6.2,5.3-8.7c2.3-2.5,5.1-4.5,8.3-6c3.2-1.4,6.8-2.2,10.6-2.2
		c4.9,0,9.5,1.1,13.7,3.2c4.2,2.1,7.4,5.2,9.7,9.3l13.3-8.7c-3.1-5.4-7.7-9.7-13.9-13c-6.2-3.2-13.6-4.8-22.3-4.8
		c-6.3,0-12.1,1.1-17.6,3.2c-5.4,2.1-10.1,5-14.1,8.8c-4,3.8-7.1,8.1-9.4,13.1c-2.3,4.9-3.4,10.2-3.4,15.8c0,6,1.1,11.4,3.4,16.5
		c2.2,5,5.4,9.4,9.4,13.2C273.5,95.2,278.1,98.2,283.4,100.3z"/>
	<path class="st3" d="M399.8,21.5h-18.1l-33.8,81.4h17.4c8.3-21.5,16.6-43,24.9-64.5c0,0.4,0,0.8,0,1.2l0.6-1.7l12.6,33.6h-12.8
		c0.1,3.7,0.1,7.4,0.2,11.1h16.8l7.6,20.3h18.3L399.8,21.5z"/>
	<polygon class="st3" points="455.5,102.9 473.2,102.9 473.2,35.3 502.4,35.3 502.4,21.5 426.1,21.5 426.1,35.3 455.5,35.3 	"/>
	<polygon class="st3" points="578.5,89 532.7,89 532.7,67.8 571.2,67.8 571.2,54.9 532.7,54.9 532.7,48 514.9,48 514.9,102.9 
		578.5,102.9 	"/>
	<path class="st2" d="M532.7,35.3h13.7c0-0.1,0.1-0.1,0.3,0h30.6V21.5h-62.5v13.9L532.7,35.3L532.7,35.3z"/>
</g>
</svg>
